<mxfile host="app.diagrams.net" modified="2024-01-29T08:22:39.378Z" agent="Mozilla/5.0 (Macintosh; Intel Mac OS X 10_15_7) AppleWebKit/537.36 (KHTML, like Gecko) Chrome/116.0.0.0 Safari/537.36" version="23.0.2" etag="bOoew3C4ONencwHzDuGD" type="github">
  <diagram name="Page-1" id="zzYRZdPi6E65ycHGec8d">
    <mxGraphModel>
      <root>
        <mxCell id="0" />
        <mxCell id="1" parent="0" />
      </root>
    </mxGraphModel>
  </diagram>
</mxfile>
